<svg xmlns="http://www.w3.org/2000/svg" xmlns:xlink="http://www.w3.org/1999/xlink" preserveAspectRatio="xMidYMid" width="23" height="26.97" viewBox="0 0 23 26.97">
  <defs>
    <style>
      .cls-1 {
        fill: #646c70;
        fill-rule: evenodd;
      }
    </style>
  </defs>
  <path d="M23.000,19.797 C22.371,21.203 22.070,21.829 21.260,23.071 C20.131,24.805 18.538,26.962 16.565,26.982 C14.812,26.997 14.361,25.831 11.982,25.843 C9.602,25.857 9.106,27.001 7.352,26.985 C5.379,26.967 3.869,25.018 2.739,23.285 C-0.420,18.438 -0.750,12.749 1.198,9.726 C2.583,7.576 4.767,6.319 6.822,6.319 C8.913,6.319 10.228,7.474 11.957,7.474 C13.635,7.474 14.657,6.317 17.074,6.317 C18.902,6.317 20.839,7.320 22.219,9.054 C17.697,11.551 18.432,18.058 23.000,19.797 ZM11.112,6.493 C10.826,4.923 11.560,3.308 12.450,2.218 C13.430,1.019 15.109,0.099 16.544,-0.001 C16.786,1.639 16.119,3.244 15.240,4.380 C14.300,5.598 12.678,6.541 11.112,6.493 Z" class="cls-1"/>
</svg>
