<svg xmlns="http://www.w3.org/2000/svg" xmlns:xlink="http://www.w3.org/1999/xlink" preserveAspectRatio="xMidYMid" width="14" height="16" viewBox="0 0 14 16">
  <defs>
    <style>
      .cls-1 {
        fill: #fff;
        fill-rule: evenodd;
      }
    </style>
  </defs>
  <path d="M14.000,14.572 L14.000,8.697 C14.000,7.911 13.350,7.270 12.555,7.270 L12.507,7.270 L12.507,5.411 C12.503,2.427 10.047,-0.000 7.028,-0.000 C4.008,-0.000 1.553,2.427 1.553,5.411 L1.553,7.270 L1.444,7.270 C0.649,7.270 -0.000,7.911 -0.000,8.697 L-0.000,14.572 C-0.000,15.358 0.649,16.000 1.444,16.000 L12.555,16.000 C13.350,16.000 14.000,15.358 14.000,14.572 ZM3.949,5.411 C3.949,3.732 5.330,2.368 7.028,2.368 C8.726,2.368 10.107,3.732 10.107,5.411 L10.107,7.270 L3.949,7.270 L3.949,5.411 ZM1.590,14.425 L1.590,15.045 L2.680,14.425 L1.590,14.425 ZM3.941,14.425 L1.590,13.452 L1.590,12.876 L2.396,12.876 L5.203,14.425 L3.941,14.425 ZM6.464,14.425 L3.658,12.876 L4.919,12.876 L7.726,14.425 L6.464,14.425 ZM8.984,14.425 L6.177,12.876 L7.438,12.876 L10.245,14.425 L8.984,14.425 ZM12.406,14.425 L11.507,14.425 L8.700,12.876 L9.961,12.876 L12.406,15.967 L12.406,14.425 L12.406,14.425 ZM12.406,14.374 L11.223,12.876 L12.406,12.876 L12.406,14.374 Z" class="cls-1"/>
</svg>
