<svg xmlns="http://www.w3.org/2000/svg" xmlns:xlink="http://www.w3.org/1999/xlink" preserveAspectRatio="xMidYMid" width="20" height="21" viewBox="0 0 20 21">
  <defs>
    <style>
      .cls-1 {
        fill: #376092;
        stroke: #376092;
        stroke-linejoin: round;
        stroke-width: 1px;
        fill-rule: evenodd;
      }
    </style>
  </defs>
  <path d="M10.000,17.000 C6.416,17.000 3.500,14.085 3.500,10.501 C3.500,6.918 6.416,4.003 10.000,4.003 C13.584,4.003 16.500,6.918 16.500,10.501 C16.500,14.085 13.584,17.000 10.000,17.000 ZM10.000,4.745 C6.825,4.745 4.243,7.328 4.243,10.501 C4.243,13.675 6.825,16.257 10.000,16.257 C13.174,16.257 15.757,13.675 15.757,10.501 C15.757,7.328 13.174,4.745 10.000,4.745 ZM12.563,10.873 L10.371,10.873 L10.371,13.064 C10.371,13.269 10.205,13.435 10.000,13.435 C9.795,13.435 9.628,13.269 9.628,13.064 L9.628,10.873 L7.437,10.873 C7.232,10.873 7.065,10.707 7.065,10.501 C7.065,10.297 7.232,10.130 7.437,10.130 L9.628,10.130 L9.628,7.940 C9.628,7.734 9.795,7.568 10.000,7.568 C10.205,7.568 10.371,7.734 10.371,7.940 L10.371,10.130 L12.563,10.130 C12.768,10.130 12.934,10.297 12.934,10.501 C12.934,10.707 12.768,10.873 12.563,10.873 Z" class="cls-1"/>
</svg>
