<svg xmlns="http://www.w3.org/2000/svg" xmlns:xlink="http://www.w3.org/1999/xlink" preserveAspectRatio="xMidYMid" width="23" height="23" viewBox="0 0 23 23">
  <defs>
    <style>
      .cls-1 {
        fill: #fff;
        fill-rule: evenodd;
      }
    </style>
  </defs>
  <path d="M11.500,23.003 C5.157,23.003 -0.003,17.843 -0.003,11.500 C-0.003,5.156 5.157,-0.003 11.500,-0.003 C17.843,-0.003 23.003,5.157 23.003,11.500 C23.003,17.843 17.843,23.003 11.500,23.003 ZM11.500,1.851 C6.180,1.851 1.851,6.179 1.851,11.500 C1.851,16.820 6.180,21.148 11.500,21.148 C16.820,21.148 21.149,16.820 21.149,11.500 C21.149,6.179 16.821,1.851 11.500,1.851 ZM14.768,10.700 C14.581,10.915 14.374,11.099 14.147,11.250 C13.921,11.403 13.707,11.554 13.506,11.706 C13.304,11.858 13.125,12.031 12.970,12.227 C12.813,12.422 12.715,12.667 12.675,12.960 L12.675,13.518 L10.634,13.518 L10.634,12.857 C10.664,12.436 10.748,12.084 10.884,11.801 C11.020,11.517 11.178,11.274 11.359,11.074 C11.541,10.873 11.732,10.699 11.934,10.552 C12.135,10.405 12.321,10.258 12.493,10.113 C12.663,9.965 12.803,9.804 12.909,9.627 C13.015,9.452 13.062,9.231 13.052,8.966 C13.052,8.516 12.939,8.183 12.712,7.968 C12.486,7.752 12.171,7.645 11.767,7.645 C11.495,7.645 11.261,7.696 11.065,7.798 C10.868,7.901 10.707,8.039 10.581,8.210 C10.455,8.382 10.362,8.583 10.302,8.812 C10.241,9.043 10.211,9.289 10.211,9.555 L7.990,9.555 C7.999,9.025 8.092,8.541 8.269,8.099 C8.446,7.659 8.692,7.278 9.009,6.955 C9.326,6.630 9.710,6.379 10.158,6.198 C10.606,6.016 11.107,5.926 11.661,5.926 C12.377,5.926 12.974,6.022 13.453,6.213 C13.931,6.404 14.316,6.642 14.609,6.925 C14.901,7.210 15.110,7.516 15.237,7.843 C15.362,8.171 15.425,8.478 15.425,8.761 C15.425,9.231 15.362,9.618 15.237,9.921 C15.110,10.225 14.954,10.484 14.768,10.700 ZM12.795,16.660 L10.422,16.660 L10.422,14.400 L12.795,14.400 L12.795,16.660 Z" class="cls-1"/>
</svg>
