<svg xmlns="http://www.w3.org/2000/svg" xmlns:xlink="http://www.w3.org/1999/xlink" preserveAspectRatio="xMidYMid" width="23" height="26.97" viewBox="0 0 23 26.97">
  <defs>
    <style>
      .cls-1 {
        fill: #646c70;
        fill-rule: evenodd;
      }
    </style>
  </defs>
  <path d="M23.000,-2230.202 C22.371,-2228.797 22.070,-2228.170 21.260,-2226.929 C20.131,-2225.195 18.538,-2223.037 16.565,-2223.018 C14.812,-2223.002 14.361,-2224.169 11.982,-2224.156 C9.602,-2224.143 9.106,-2222.998 7.352,-2223.015 C5.379,-2223.033 3.869,-2224.982 2.739,-2226.715 C-0.420,-2231.562 -0.750,-2237.251 1.198,-2240.274 C2.583,-2242.423 4.767,-2243.681 6.822,-2243.681 C8.913,-2243.681 10.228,-2242.525 11.957,-2242.525 C13.635,-2242.525 14.657,-2243.683 17.074,-2243.683 C18.902,-2243.683 20.839,-2242.680 22.219,-2240.946 C17.697,-2238.449 18.432,-2231.942 23.000,-2230.202 ZM11.112,-2243.507 C10.826,-2245.077 11.560,-2246.692 12.450,-2247.781 C13.430,-2248.980 15.109,-2249.901 16.544,-2250.001 C16.786,-2248.360 16.119,-2246.756 15.240,-2245.620 C14.300,-2244.402 12.678,-2243.459 11.112,-2243.507 Z" class="cls-1"/>
</svg>
