<svg xmlns="http://www.w3.org/2000/svg" xmlns:xlink="http://www.w3.org/1999/xlink" preserveAspectRatio="xMidYMid" width="63.062" height="63.97" viewBox="0 0 63.062 63.97">
  <defs>
    <style>
      .cls-1 {
        fill: #0d59a4;
        fill-rule: evenodd;
      }
    </style>
  </defs>
  <g>
    <path d="M47.062,13.999 L47.062,11.999 L49.062,11.999 L49.062,13.999 L47.062,13.999 ZM43.062,13.999 L43.062,11.999 L45.062,11.999 L45.062,13.999 L43.062,13.999 ZM39.062,13.999 L39.062,11.999 L41.062,11.999 L41.062,13.999 L39.062,13.999 ZM60.062,25.999 L45.476,25.999 L39.769,31.706 L38.355,30.292 L44.648,23.999 L60.062,23.999 C60.614,23.999 61.062,23.550 61.062,22.999 L61.062,2.999 C61.062,2.448 60.614,1.999 60.062,1.999 L28.062,1.999 C27.510,1.999 27.062,2.448 27.062,2.999 L27.062,11.999 L25.062,11.999 L25.062,2.999 C25.062,1.345 26.408,-0.000 28.062,-0.000 L60.062,-0.000 C61.716,-0.000 63.062,1.345 63.062,2.999 L63.062,22.999 C63.062,24.654 61.716,25.999 60.062,25.999 Z" class="cls-1"/>
    <path d="M45.400,63.971 L45.400,53.407 C45.400,49.641 42.899,47.199 37.038,45.239 C37.002,45.227 36.966,45.212 36.932,45.195 L30.618,42.030 L28.713,42.030 L25.708,45.043 C25.557,45.195 25.350,45.280 25.136,45.280 L21.894,45.280 C21.679,45.280 21.473,45.195 21.321,45.043 L18.316,42.030 L16.408,42.030 L10.097,45.195 C10.063,45.212 10.028,45.227 9.991,45.239 C4.130,47.199 1.629,49.641 1.629,53.407 L1.629,63.971 L0.008,63.971 L0.008,53.407 C0.008,47.630 5.027,45.192 9.424,43.717 L15.856,40.491 C16.811,40.058 17.841,39.259 17.841,38.780 L17.841,34.805 C16.193,32.428 15.409,29.035 15.409,25.777 L15.409,23.339 C15.409,21.829 16.444,20.552 17.841,20.192 L17.841,18.463 C17.841,18.181 17.987,17.921 18.225,17.773 C18.463,17.624 18.763,17.611 19.014,17.738 L23.705,20.089 L28.378,20.089 C30.166,20.089 31.620,21.547 31.620,23.339 L31.620,25.777 C31.620,28.318 31.136,30.933 30.145,33.092 L33.242,33.092 C33.688,33.092 34.053,32.727 34.053,32.278 L34.053,30.895 C33.313,31.250 32.494,31.465 31.620,31.465 L31.620,29.841 C33.855,29.841 35.673,28.017 35.673,25.777 C35.673,23.538 33.855,21.714 31.620,21.714 L31.620,20.089 C32.168,20.089 32.687,20.192 33.189,20.338 C32.917,16.841 30.212,14.018 26.757,13.634 L26.757,14.401 C26.757,14.661 26.632,14.906 26.420,15.060 C26.208,15.211 25.936,15.254 25.690,15.171 L20.955,13.589 C17.182,13.655 14.134,16.613 13.844,20.337 C14.344,20.192 14.862,20.089 15.409,20.089 L15.409,21.714 C13.174,21.714 11.356,23.538 11.356,25.777 C11.356,28.017 13.174,29.841 15.409,29.841 L15.409,31.465 C12.280,31.465 9.735,28.915 9.735,25.777 C9.735,23.697 10.867,21.893 12.534,20.901 L12.167,20.901 C12.167,15.972 16.167,11.963 21.083,11.963 C21.170,11.963 21.257,11.976 21.339,12.006 L25.136,13.274 L25.136,12.774 C25.136,12.325 25.499,11.963 25.946,11.963 C30.862,11.963 34.863,15.972 34.863,20.901 L34.496,20.901 C36.163,21.893 37.294,23.697 37.294,25.777 C37.294,27.370 36.634,28.807 35.579,29.841 L35.673,29.841 L35.673,32.278 C35.673,33.622 34.582,34.717 33.242,34.717 L29.243,34.717 C29.224,34.745 29.208,34.777 29.189,34.805 L29.189,38.780 C29.189,39.307 30.343,40.117 31.141,40.476 L37.605,43.717 C42.002,45.192 47.021,47.630 47.021,53.407 L47.021,63.971 L45.400,63.971 ZM19.224,40.643 L22.229,43.655 L24.800,43.655 L27.805,40.643 C27.936,40.513 28.108,40.443 28.290,40.423 C27.877,39.960 27.567,39.410 27.567,38.780 L27.567,36.551 C26.456,37.433 25.115,37.967 23.515,37.967 C21.914,37.967 20.573,37.433 19.461,36.550 L19.461,38.780 C19.461,39.410 19.152,39.959 18.739,40.423 C18.920,40.443 19.093,40.512 19.224,40.643 ZM23.515,32.278 C23.515,32.727 23.879,33.092 24.325,33.092 L28.355,33.092 C29.466,31.071 29.999,28.376 29.999,25.777 L29.999,23.339 C29.999,22.443 29.272,21.714 28.378,21.714 L23.515,21.714 C23.389,21.714 23.264,21.685 23.152,21.629 L19.461,19.779 L19.461,20.901 C19.461,21.350 19.099,21.714 18.651,21.714 C17.757,21.714 17.030,22.443 17.030,23.339 L17.030,25.777 C17.030,30.865 19.059,36.343 23.515,36.343 C25.004,36.343 26.216,35.721 27.178,34.717 L24.325,34.717 C22.984,34.717 21.894,33.622 21.894,32.278 L23.515,32.278 ZM9.735,63.971 L8.114,63.971 L8.114,57.471 L9.735,57.471 L9.735,63.971 ZM24.325,48.531 L22.704,48.531 L22.704,46.906 L24.325,46.906 L24.325,48.531 ZM24.325,51.782 L22.704,51.782 L22.704,50.156 L24.325,50.156 L24.325,51.782 ZM24.325,55.032 L22.704,55.032 L22.704,53.407 L24.325,53.407 L24.325,55.032 ZM24.325,58.283 L22.704,58.283 L22.704,56.657 L24.325,56.657 L24.325,58.283 ZM24.325,61.533 L22.704,61.533 L22.704,59.908 L24.325,59.908 L24.325,61.533 ZM34.053,55.032 L27.567,55.032 L27.567,53.407 L34.053,53.407 L34.053,55.032 ZM38.915,63.971 L37.294,63.971 L37.294,57.471 L38.915,57.471 L38.915,63.971 Z" class="cls-1"/>
  </g>
</svg>
