<svg xmlns="http://www.w3.org/2000/svg" xmlns:xlink="http://www.w3.org/1999/xlink" preserveAspectRatio="xMidYMid" width="21" height="21" viewBox="0 0 21 21">
  <defs>
    <style>
      .cls-1 {
        fill: #999;
        fill-rule: evenodd;
      }
    </style>
  </defs>
  <path d="M13.780,11.156 L7.219,11.156 C6.857,11.156 6.563,11.450 6.563,11.812 C6.563,12.174 6.857,12.468 7.219,12.468 L13.780,12.468 C14.143,12.468 14.436,12.174 14.436,11.812 C14.436,11.450 14.143,11.156 13.780,11.156 ZM15.092,7.219 L5.907,7.219 C5.545,7.219 5.251,7.513 5.251,7.875 C5.251,8.237 5.545,8.531 5.907,8.531 L15.092,8.531 C15.455,8.531 15.749,8.237 15.749,7.875 C15.749,7.513 15.455,7.219 15.092,7.219 ZM10.500,0.002 C4.702,0.002 0.002,4.114 0.002,9.187 C0.002,12.087 1.540,14.668 3.938,16.352 L3.938,20.998 L8.537,18.207 C9.174,18.312 9.828,18.373 10.500,18.373 C16.298,18.373 20.998,14.260 20.998,9.187 C20.998,4.114 16.298,0.002 10.500,0.002 ZM10.500,17.061 C9.733,17.061 8.993,16.972 8.282,16.820 L5.193,18.677 L5.234,15.634 C2.866,14.209 1.314,11.855 1.314,9.187 C1.314,4.839 5.426,1.314 10.500,1.314 C15.573,1.314 19.686,4.839 19.686,9.187 C19.686,13.536 15.573,17.061 10.500,17.061 Z" class="cls-1"/>
</svg>
