<svg xmlns="http://www.w3.org/2000/svg" xmlns:xlink="http://www.w3.org/1999/xlink" preserveAspectRatio="xMidYMid" width="35" height="30" viewBox="0 0 35 30">
  <defs>
    <style>
      .cls-1 {
        fill: #00b050;
        fill-rule: evenodd;
      }
    </style>
  </defs>
  <path d="M33.891,19.721 C33.151,22.079 31.784,24.191 29.788,26.062 C28.152,27.596 26.145,28.858 23.769,29.855 C22.879,30.228 21.849,29.855 21.432,29.004 L20.140,26.355 C19.710,25.470 20.108,24.410 21.030,24.016 C23.037,23.155 24.537,22.064 25.528,20.747 C26.784,19.077 27.448,16.856 27.516,14.082 L22.294,14.082 C21.303,14.082 20.499,13.301 20.499,12.339 L20.499,1.742 C20.499,0.780 21.303,-0.001 22.294,-0.001 L33.205,-0.001 C34.196,-0.001 35.000,0.780 35.000,1.742 L35.000,10.073 C35.000,14.152 34.630,17.365 33.891,19.721 ZM9.800,26.062 C8.152,27.593 6.156,28.854 3.809,29.848 C2.919,30.224 1.882,29.848 1.465,28.998 L0.177,26.355 C-0.254,25.470 0.144,24.410 1.067,24.016 C3.073,23.155 4.574,22.064 5.564,20.747 C6.820,19.077 7.485,16.856 7.553,14.082 L2.330,14.082 C1.340,14.082 0.536,13.301 0.536,12.339 L0.536,1.742 C0.536,0.780 1.340,-0.001 2.330,-0.001 L13.242,-0.001 C14.232,-0.001 15.036,0.780 15.036,1.742 L15.036,10.073 C15.036,14.183 14.667,17.407 13.927,19.746 C13.188,22.085 11.813,24.191 9.800,26.062 Z" class="cls-1"/>
</svg>
