<svg xmlns="http://www.w3.org/2000/svg" xmlns:xlink="http://www.w3.org/1999/xlink" preserveAspectRatio="xMidYMid" width="23" height="23" viewBox="0 0 23 23">
  <defs>
    <style>
      .cls-1 {
        fill: #fff;
        opacity: 0.6;
        fill-rule: evenodd;
      }
    </style>
  </defs>
  <path d="M11.500,-0.001 C5.149,-0.001 -0.000,5.149 -0.000,11.500 C-0.000,17.850 5.149,23.000 11.500,23.000 C17.851,23.000 23.000,17.850 23.000,11.500 C23.000,5.149 17.851,-0.001 11.500,-0.001 ZM11.500,20.844 C6.348,20.844 2.156,16.652 2.156,11.500 C2.156,6.348 6.348,2.156 11.500,2.156 C16.652,2.156 20.844,6.348 20.844,11.500 C20.844,16.652 16.652,20.844 11.500,20.844 ZM15.453,8.624 C15.139,8.624 14.858,8.761 14.661,8.976 L14.658,8.974 L11.500,12.419 L8.341,8.974 L8.338,8.976 C8.142,8.761 7.862,8.624 7.547,8.624 C6.952,8.624 6.469,9.108 6.469,9.703 C6.469,9.984 6.579,10.237 6.755,10.429 L6.752,10.432 L10.705,14.744 C10.910,14.966 11.197,15.093 11.500,15.093 C11.803,15.093 12.090,14.966 12.295,14.744 L16.248,10.432 L16.245,10.429 C16.422,10.237 16.531,9.984 16.531,9.703 C16.531,9.108 16.048,8.624 15.453,8.624 Z" class="cls-1"/>
</svg>
