<svg xmlns="http://www.w3.org/2000/svg" xmlns:xlink="http://www.w3.org/1999/xlink" preserveAspectRatio="xMidYMid" width="24" height="14" viewBox="0 0 24 14">
  <defs>
    <style>
      .cls-1 {
        fill: #fff;
        fill-rule: evenodd;
      }
    </style>
  </defs>
  <path d="M23.715,6.323 L17.540,0.280 C17.158,-0.093 16.546,-0.093 16.165,0.280 C15.784,0.653 15.784,1.252 16.165,1.626 L20.685,6.048 L0.971,6.048 C0.431,6.048 -0.000,6.471 -0.000,6.999 C-0.000,7.527 0.431,7.949 0.971,7.949 L20.685,7.949 L16.165,12.372 C15.784,12.746 15.784,13.345 16.165,13.717 C16.352,13.901 16.604,13.999 16.849,13.999 C17.093,13.999 17.345,13.908 17.532,13.717 L23.708,7.675 C24.097,7.295 24.097,6.689 23.715,6.323 Z" class="cls-1"/>
</svg>
