<svg xmlns="http://www.w3.org/2000/svg" xmlns:xlink="http://www.w3.org/1999/xlink" preserveAspectRatio="xMidYMid" width="24" height="24" viewBox="0 0 24 24">
  <defs>
    <style>
      .cls-1 {
        fill: #0554a1;
        fill-rule: evenodd;
      }
    </style>
  </defs>
  <path d="M20.486,20.487 C18.218,22.753 15.206,23.999 11.999,23.999 C10.008,23.999 8.052,23.507 6.312,22.572 C5.020,23.461 3.472,23.969 1.999,23.969 C1.702,23.969 1.415,23.944 1.149,23.904 C0.661,23.828 0.289,23.451 0.214,22.964 C0.143,22.482 0.390,22.009 0.827,21.793 C1.546,21.442 2.180,20.708 2.718,19.607 C-1.179,14.874 -0.862,7.889 3.512,3.517 C5.780,1.250 8.791,-0.000 11.999,-0.000 C15.206,-0.000 18.218,1.250 20.486,3.517 C22.753,5.783 24.000,8.803 24.000,12.004 C24.000,15.206 22.753,18.220 20.486,20.487 ZM19.525,4.466 C17.514,2.457 14.839,1.351 11.999,1.351 C9.158,1.351 6.483,2.457 4.472,4.466 C0.500,8.437 0.304,14.838 4.025,19.039 C4.201,19.240 4.246,19.521 4.140,19.763 C3.572,21.064 2.893,21.999 2.084,22.602 C2.763,22.587 4.311,22.411 5.850,21.220 C5.971,21.130 6.121,21.080 6.267,21.080 C6.383,21.080 6.503,21.115 6.609,21.175 C8.233,22.130 10.098,22.637 11.999,22.637 C14.839,22.637 17.514,21.532 19.525,19.521 C23.678,15.376 23.678,8.622 19.525,4.466 ZM17.026,15.959 L6.971,15.959 C6.594,15.959 6.292,15.657 6.292,15.281 C6.292,14.904 6.594,14.602 6.971,14.602 L17.026,14.602 C17.399,14.602 17.705,14.904 17.705,15.281 C17.705,15.657 17.404,15.959 17.026,15.959 ZM17.026,12.678 L6.971,12.678 C6.594,12.678 6.292,12.376 6.292,11.999 C6.292,11.622 6.594,11.321 6.971,11.321 L17.026,11.321 C17.399,11.321 17.705,11.622 17.705,11.999 C17.705,12.376 17.404,12.678 17.026,12.678 ZM17.026,9.396 L6.971,9.396 C6.594,9.396 6.292,9.094 6.292,8.717 C6.292,8.341 6.594,8.040 6.971,8.040 L17.026,8.040 C17.399,8.040 17.705,8.341 17.705,8.717 C17.705,9.094 17.404,9.396 17.026,9.396 Z" class="cls-1"/>
</svg>
