<svg xmlns="http://www.w3.org/2000/svg" xmlns:xlink="http://www.w3.org/1999/xlink" preserveAspectRatio="xMidYMid" width="15" height="15" viewBox="0 0 15 15">
  <defs>
    <style>
      .cls-1 {
        fill: #fff;
        fill-rule: evenodd;
      }
    </style>
  </defs>
  <path d="M7.500,14.998 C3.358,14.998 -0.000,11.640 -0.000,7.497 C-0.000,3.356 3.358,-0.003 7.500,-0.003 C11.642,-0.003 15.000,3.356 15.000,7.497 C15.000,11.640 11.642,14.998 7.500,14.998 ZM7.500,0.997 C3.910,0.997 1.000,3.908 1.000,7.497 C1.000,11.087 3.910,13.997 7.500,13.997 C11.090,13.997 14.000,11.087 14.000,7.497 C14.000,3.908 11.090,0.997 7.500,0.997 ZM10.477,7.986 L7.988,7.986 L7.988,10.474 C7.988,10.762 7.769,10.996 7.500,10.996 C7.230,10.996 7.011,10.762 7.011,10.474 L7.011,7.986 L4.523,7.986 C4.235,7.986 4.002,7.767 4.002,7.497 C4.002,7.227 4.235,7.009 4.523,7.009 L7.011,7.009 L7.011,4.521 C7.011,4.233 7.230,4.000 7.500,4.000 C7.769,4.000 7.988,4.233 7.988,4.521 L7.988,7.009 L10.477,7.009 C10.764,7.009 10.997,7.227 10.997,7.497 C10.997,7.767 10.764,7.986 10.477,7.986 Z" class="cls-1"/>
</svg>
