<svg xmlns="http://www.w3.org/2000/svg" xmlns:xlink="http://www.w3.org/1999/xlink" preserveAspectRatio="xMidYMid" width="21" height="21" viewBox="0 0 21 21">
  <defs>
    <style>
      .cls-1 {
        fill: #666;
        fill-rule: evenodd;
      }
    </style>
  </defs>
  <path d="M20.818,19.929 L15.713,14.825 C17.083,13.252 17.912,11.198 17.912,8.954 C17.912,4.014 13.892,-0.000 8.956,-0.000 C4.014,-0.000 -0.000,4.018 -0.000,8.954 C-0.000,13.890 4.019,17.908 8.956,17.908 C11.201,17.908 13.254,17.079 14.828,15.710 L19.933,20.814 C20.054,20.935 20.217,21.000 20.375,21.000 C20.534,21.000 20.697,20.939 20.818,20.814 C21.060,20.571 21.060,20.171 20.818,19.929 ZM1.253,8.954 C1.253,4.707 4.708,1.257 8.951,1.257 C13.198,1.257 16.650,4.712 16.650,8.954 C16.650,13.196 13.198,16.656 8.951,16.656 C4.708,16.656 1.253,13.200 1.253,8.954 Z" class="cls-1"/>
</svg>
