<svg xmlns="http://www.w3.org/2000/svg" xmlns:xlink="http://www.w3.org/1999/xlink" preserveAspectRatio="xMidYMid" width="23.97" height="24" viewBox="0 0 23.97 24">
  <defs>
    <style>
      .cls-1 {
        fill: #ffffff;
        fill-rule: evenodd;
      }
    </style>
  </defs>
  <path d="M23.401,11.366 C23.361,11.371 23.325,11.377 23.285,11.377 C22.955,11.377 22.666,11.144 22.610,10.809 C22.209,8.449 21.093,6.296 19.379,4.584 C17.664,2.876 15.508,1.757 13.144,1.357 C12.769,1.291 12.520,0.942 12.581,0.567 C12.647,0.197 12.997,-0.056 13.367,0.010 C16.015,0.461 18.425,1.707 20.342,3.621 C22.260,5.536 23.508,7.942 23.959,10.586 C24.025,10.956 23.772,11.310 23.401,11.366 ZM13.180,4.361 C14.788,4.635 16.254,5.394 17.415,6.554 C18.577,7.714 19.338,9.179 19.612,10.784 C19.673,11.158 19.424,11.513 19.049,11.574 C19.008,11.579 18.973,11.584 18.932,11.584 C18.602,11.584 18.313,11.351 18.257,11.017 C18.029,9.690 17.405,8.484 16.441,7.522 C15.478,6.560 14.270,5.931 12.941,5.708 C12.566,5.647 12.322,5.288 12.388,4.918 C12.454,4.548 12.804,4.300 13.180,4.361 ZM8.634,8.874 C8.259,9.253 7.873,9.649 7.458,10.029 C7.767,10.712 8.193,11.386 8.827,12.187 C10.136,13.792 11.501,15.034 13.002,15.986 C13.149,16.077 13.322,16.163 13.504,16.254 C13.631,16.320 13.763,16.386 13.895,16.457 L15.498,14.861 C16.010,14.350 16.609,14.081 17.233,14.081 C17.862,14.081 18.455,14.355 18.947,14.866 L21.732,17.658 C22.245,18.164 22.514,18.767 22.514,19.395 C22.514,20.018 22.250,20.626 21.748,21.148 C21.529,21.376 21.306,21.593 21.088,21.801 C20.769,22.110 20.464,22.398 20.200,22.718 C20.195,22.727 20.185,22.733 20.180,22.743 C19.409,23.579 18.425,23.999 17.253,23.999 C17.152,23.999 17.040,23.994 16.934,23.989 C15.194,23.877 13.636,23.225 12.469,22.672 C9.416,21.198 6.742,19.106 4.520,16.457 C2.689,14.258 1.461,12.207 0.640,9.994 C0.305,9.092 -0.131,7.714 -0.010,6.235 C0.071,5.319 0.442,4.528 1.091,3.879 L2.816,2.142 C2.821,2.137 2.821,2.137 2.826,2.132 C3.333,1.646 3.932,1.388 4.551,1.388 C5.170,1.388 5.758,1.646 6.250,2.132 C6.580,2.436 6.899,2.760 7.204,3.074 C7.356,3.236 7.518,3.398 7.676,3.556 L9.060,4.938 C10.126,6.001 10.126,7.380 9.060,8.443 C8.918,8.585 8.776,8.732 8.634,8.874 ZM8.097,5.906 L6.712,4.523 C6.549,4.356 6.387,4.194 6.230,4.032 C5.920,3.713 5.626,3.414 5.317,3.125 C5.312,3.120 5.307,3.115 5.301,3.110 C5.139,2.947 4.880,2.755 4.561,2.755 C4.302,2.755 4.038,2.882 3.790,3.115 L2.060,4.842 C1.639,5.263 1.411,5.754 1.360,6.346 C1.284,7.273 1.456,8.256 1.928,9.517 C2.694,11.584 3.851,13.509 5.580,15.591 C7.676,18.088 10.197,20.058 13.068,21.446 C14.118,21.947 15.518,22.535 17.025,22.632 C17.101,22.637 17.182,22.637 17.258,22.637 C18.049,22.637 18.653,22.379 19.166,21.831 C19.480,21.461 19.815,21.132 20.145,20.818 C20.363,20.605 20.566,20.413 20.764,20.200 C21.281,19.664 21.281,19.131 20.758,18.614 L17.963,15.824 C17.958,15.819 17.958,15.819 17.953,15.814 C17.796,15.641 17.537,15.443 17.223,15.443 C16.903,15.443 16.629,15.652 16.457,15.824 L14.722,17.556 C14.635,17.642 14.372,17.906 13.951,17.906 C13.783,17.906 13.621,17.865 13.448,17.779 C13.428,17.768 13.408,17.753 13.388,17.744 C13.240,17.652 13.068,17.566 12.885,17.475 C12.683,17.373 12.469,17.267 12.261,17.136 C10.633,16.107 9.157,14.765 7.757,13.043 L7.752,13.038 C6.981,12.060 6.473,11.240 6.113,10.368 C6.108,10.353 6.103,10.338 6.098,10.323 C6.007,10.034 5.925,9.608 6.362,9.173 C6.367,9.163 6.377,9.158 6.387,9.148 C6.828,8.753 7.234,8.347 7.660,7.911 C7.808,7.769 7.950,7.623 8.097,7.476 C8.634,6.939 8.634,6.443 8.097,5.906 Z" class="cls-1"/>
</svg>
